<svg width="200" height="200" viewBox="0 0 200 200" fill="none" xmlns="http://www.w3.org/2000/svg">
<path d="M40.4115 157.395L24.5625 74.8084C21.9165 62.2384 28.9505 58.5876 38.4375 59.8236C52.0085 61.5906 168.508 75.3475 168.508 75.3475C169.94 75.2325 175.237 76.9088 175.237 81.0418L163.987 143.174C163.987 147.885 159.755 150.796 157.054 151.163L52.5215 165.396C43.8335 166.626 41.3625 162.887 40.4115 157.395Z" fill="url(#paint0_linear_2866_694)"/>
<path d="M84.0285 172.68H84.0755C90.5145 172.664 95.7295 167.442 95.7295 161.002C95.7295 160.502 95.6945 160.009 95.6355 159.527L119.047 156.338L119.042 156.682C119.042 163.133 124.27 168.361 130.717 168.361C137.164 168.361 142.391 163.133 142.391 156.682C142.391 155.481 142.21 154.321 141.871 153.233L157.054 151.165C159.754 150.798 163.987 147.886 163.987 143.175L166.337 130.195C147.394 126.924 124.399 125.01 99.6165 125.01C75.7945 125.01 53.6285 126.781 35.1185 129.822L40.4115 157.396C41.3625 162.888 43.8375 166.622 52.5215 165.398L72.4965 162.683C73.3095 168.325 78.1595 172.66 84.0285 172.68Z" fill="url(#paint1_linear_2866_694)"/>
<path d="M130.662 134.106H155.203C157.043 134.088 158.017 136.126 158.017 137.317C158.017 138.796 156.874 140.77 154.98 140.755H130.662V134.106ZM133.662 27H148.303C148.943 27 151.114 28.1717 151.114 29.3667V118.141C151.114 119.087 149.469 120.73 148.526 120.73H133.442C132.077 120.73 130.854 118.031 130.854 117.753V29.9775C130.853 29.1445 132.245 27 133.662 27ZM106.947 40.8047H121.586C122.225 40.8047 124.397 41.9479 124.397 43.1719V118.142C124.397 119.088 122.751 120.731 121.809 120.731H106.725C105.358 120.731 104.139 118.032 104.139 117.754V43.7827C104.138 42.9197 105.525 40.8047 106.947 40.8047ZM80.2295 54.1636H94.8685C95.5075 54.1636 97.6795 55.3088 97.6795 56.5288V118.141C97.6795 119.087 96.0345 120.73 95.0905 120.73H80.0055C78.6425 120.73 77.4195 118.031 77.4195 117.753V57.1416C77.4195 56.2776 78.8075 54.1636 80.2295 54.1636ZM53.5125 67.522H68.1515C68.7905 67.522 70.9625 68.6627 70.9625 69.8887V118.142C70.9625 119.088 69.3205 120.731 68.3745 120.731H53.2885C51.9275 120.731 50.7005 118.032 50.7005 117.754V70.5C50.7005 69.641 52.0955 67.522 53.5125 67.522ZM46.6085 134.11H97.8155C97.6785 136.215 97.6785 138.421 97.8725 140.751H46.3895C44.3575 140.771 44.0205 137.627 44.0205 137.317C44.0205 136.125 44.8825 134.088 46.6085 134.11Z" fill="#19E3F9"/>
<path d="M102.366 137.677C102.366 131.239 107.587 126.018 114.026 126.018C120.469 126.018 125.692 131.239 125.692 137.677C125.692 144.119 120.469 149.34 114.026 149.34C107.587 149.34 102.366 144.119 102.366 137.677Z" fill="#19E3F9"/>
<path d="M111.671 136.822C111.199 138.119 111.868 139.558 113.171 140.033C114.47 140.504 115.907 139.833 116.38 138.535C116.857 137.233 116.183 135.795 114.884 135.324C113.581 134.854 112.146 135.522 111.671 136.822ZM116.321 131.231C117.091 131.512 117.764 131.651 117.372 132.715C117.324 132.861 117.315 133.057 117.263 133.195C117.158 133.482 117.671 133.993 117.827 134.052C118.196 134.183 118.979 133.562 119.47 133.74C119.97 133.921 120.593 135.819 120.527 136.005C120.346 136.499 119.362 136.701 119.234 137.062C118.738 138.425 120.56 137.998 120.783 139.046L120.063 141.015C119.074 141.421 118.101 140.17 117.604 141.537C117.472 141.896 118.093 142.686 117.917 143.173C117.735 143.676 115.843 144.302 115.649 144.234C115.16 144.052 114.961 143.075 114.591 142.94C114.063 142.746 113.748 143.027 113.625 143.367C113.572 143.51 113.279 143.952 113.23 144.096C112.998 144.729 111.777 144.188 111.626 144.131C111.237 143.993 110.265 143.683 110.495 143.038C110.548 142.895 110.634 142.31 110.683 142.166C110.794 141.867 110.291 141.376 110.094 141.301C109.781 141.19 108.969 141.799 108.48 141.626C107.984 141.442 107.355 139.549 107.425 139.356C107.601 138.868 108.583 138.662 108.718 138.298C108.907 137.767 108.626 137.454 108.32 137.343C107.064 136.884 107.132 136.408 107.525 135.33C107.664 134.947 107.949 133.962 108.615 134.202C109.113 134.386 110.053 134.63 110.344 133.826C110.474 133.47 109.85 132.678 110.033 132.185C110.213 131.691 112.114 131.063 112.302 131.129C112.795 131.311 112.998 132.29 113.356 132.42C113.887 132.613 114.2 132.336 114.324 131.992C114.376 131.849 114.667 131.407 114.72 131.263C114.956 130.619 116.175 131.174 116.321 131.231Z" fill="#0D6FD3"/>
<defs>
<linearGradient id="paint0_linear_2866_694" x1="21.1556" y1="112.311" x2="175.971" y2="114.504" gradientUnits="userSpaceOnUse">
<stop stop-color="#00DBDB"/>
<stop offset="0.9804" stop-color="#3647D3"/>
</linearGradient>
<linearGradient id="paint1_linear_2866_694" x1="35.5486" y1="123.195" x2="161.169" y2="166.756" gradientUnits="userSpaceOnUse">
<stop stop-color="#1933BE"/>
<stop offset="1" stop-color="#2A9CE2"/>
</linearGradient>
</defs>
</svg>
